<svg width="108" height="64" viewBox="0 0 108 64" fill="none" xmlns="http://www.w3.org/2000/svg">
<rect x="55.7071" y="42.9838" width="13" height="13" transform="rotate(-45.5235 55.7071 42.9838)" fill="url(#paint0_linear_36_11634)" stroke="white"/>
<rect x="66" y="53.9902" width="14" height="14" transform="rotate(-45.5235 66 53.9902)" fill="white"/>
<rect x="55" y="20.9902" width="14" height="14" transform="rotate(-45.5235 55 20.9902)" fill="white"/>
<rect x="44" y="31.9902" width="14" height="14" transform="rotate(-45.5235 44 31.9902)" fill="white"/>
<rect x="44.7071" y="53.9838" width="13" height="13" transform="rotate(-45.5235 44.7071 53.9838)" fill="url(#paint1_linear_36_11634)" stroke="white"/>
<rect x="33.7071" y="42.9838" width="13" height="13" transform="rotate(-45.5235 33.7071 42.9838)" fill="url(#paint2_linear_36_11634)" stroke="white"/>
<rect x="22" y="53.9902" width="14" height="14" transform="rotate(-45.5235 22 53.9902)" fill="white"/>
<rect x="11.7071" y="42.9838" width="13" height="13" transform="rotate(-45.5235 11.7071 42.9838)" fill="url(#paint3_linear_36_11634)" stroke="white"/>
<rect x="0.707077" y="53.9838" width="13" height="13" transform="rotate(-45.5235 0.707077 53.9838)" fill="url(#paint4_linear_36_11634)" stroke="white"/>
<rect x="22.7071" y="31.9838" width="13" height="13" transform="rotate(-45.5235 22.7071 31.9838)" fill="url(#paint5_linear_36_11634)" stroke="white"/>
<rect x="33" y="20.9902" width="14" height="14" transform="rotate(-45.5235 33 20.9902)" fill="white"/>
<rect x="44" y="9.99023" width="14" height="14" transform="rotate(-45.5235 44 9.99023)" fill="white"/>
<rect x="66.7071" y="31.9838" width="13" height="13" transform="rotate(-45.5235 66.7071 31.9838)" fill="url(#paint6_linear_36_11634)" stroke="white"/>
<rect x="77.7071" y="42.9838" width="13" height="13" transform="rotate(-45.5235 77.7071 42.9838)" fill="url(#paint7_linear_36_11634)" stroke="white"/>
<rect x="88.7071" y="53.9838" width="13" height="13" transform="rotate(-45.5235 88.7071 53.9838)" fill="url(#paint8_linear_36_11634)" stroke="white"/>
<defs>
<linearGradient id="paint0_linear_36_11634" x1="62" y1="42.9902" x2="62" y2="56.9902" gradientUnits="userSpaceOnUse">
<stop stop-color="#024179"/>
<stop offset="1"/>
</linearGradient>
<linearGradient id="paint1_linear_36_11634" x1="51" y1="53.9902" x2="51" y2="67.9902" gradientUnits="userSpaceOnUse">
<stop stop-color="#024179"/>
<stop offset="1"/>
</linearGradient>
<linearGradient id="paint2_linear_36_11634" x1="40" y1="42.9902" x2="40" y2="56.9902" gradientUnits="userSpaceOnUse">
<stop stop-color="#024179"/>
<stop offset="1"/>
</linearGradient>
<linearGradient id="paint3_linear_36_11634" x1="18" y1="42.9902" x2="18" y2="56.9902" gradientUnits="userSpaceOnUse">
<stop stop-color="#024179"/>
<stop offset="1"/>
</linearGradient>
<linearGradient id="paint4_linear_36_11634" x1="7" y1="53.9902" x2="7" y2="67.9902" gradientUnits="userSpaceOnUse">
<stop stop-color="#024179"/>
<stop offset="1"/>
</linearGradient>
<linearGradient id="paint5_linear_36_11634" x1="29" y1="31.9902" x2="29" y2="45.9902" gradientUnits="userSpaceOnUse">
<stop stop-color="#024179"/>
<stop offset="1"/>
</linearGradient>
<linearGradient id="paint6_linear_36_11634" x1="73" y1="31.9902" x2="73" y2="45.9902" gradientUnits="userSpaceOnUse">
<stop stop-color="#024179"/>
<stop offset="1"/>
</linearGradient>
<linearGradient id="paint7_linear_36_11634" x1="84" y1="42.9902" x2="84" y2="56.9902" gradientUnits="userSpaceOnUse">
<stop stop-color="#024179"/>
<stop offset="1"/>
</linearGradient>
<linearGradient id="paint8_linear_36_11634" x1="95" y1="53.9902" x2="95" y2="67.9902" gradientUnits="userSpaceOnUse">
<stop stop-color="#024179"/>
<stop offset="1"/>
</linearGradient>
</defs>
</svg>
