<?xml version="1.0" encoding="UTF-8"?>
<svg id="Layer_1" xmlns="http://www.w3.org/2000/svg" viewBox="0 0 2028.67 324">
  <defs>
    <style>
      .cls-1 {
        stroke-width: 2.8px;
      }

      .cls-1, .cls-2, .cls-3, .cls-4 {
        fill: none;
      }

      .cls-1, .cls-5, .cls-3 {
        stroke: #1294dd;
      }

      .cls-6, .cls-7 {
        fill: #a1493b;
      }

      .cls-8 {
        fill: #97d383;
      }

      .cls-7, .cls-2, .cls-9 {
        stroke: #badc9e;
      }

      .cls-7, .cls-5, .cls-9, .cls-10 {
        stroke-miterlimit: 10;
      }

      .cls-11 {
        fill: #b9e09e;
      }

      .cls-2 {
        stroke-width: 1.7px;
      }

      .cls-5, .cls-10 {
        fill: #064a78;
      }

      .cls-12 {
        fill: #ebf7fa;
      }

      .cls-9, .cls-13 {
        fill: #ece0c8;
      }

      .cls-10 {
        stroke: #064a78;
      }

      .cls-14 {
        fill: #fff;
      }

      .cls-3 {
        stroke-linecap: round;
        stroke-linejoin: round;
        stroke-width: 3.4px;
      }

      .cls-15 {
        fill: #513a2b;
      }

      .cls-4 {
        stroke: #302c2e;
        stroke-width: 1.1px;
      }
    </style>
  </defs>
  <g id="Layer_1-2" data-name="Layer_1">
    <g>
      <path class="cls-12" d="M296.22,237.68c-42.8,10-24.2,1.7-64.1-15.3-16.1-6.9-32.6-26.7-18.9-37.4,5.5-4.3,13.4-4.1,20.5-4.5,46.2-2.6,82.6-35.9,119-62.8,24.6-18.2,50.8-34,78.3-47.4,15.6-7.6,32.3-14.6,49.9-14.4,24.1.2,45.3,13.5,65.9,25,59.7,33.6,133.1,56.3,199.7,35.4,27.4-8.6,51.9-24.1,79.2-33.1,62.2-20.4,130.7-4.7,192.4,15.7,61.8,20.4,123.9,45.8,189.7,44.4,144.9-2.9,259-132.3,403.5-142.8,13.3-1,27.2-.8,39.4,4.1,18.9,7.6,30.7,25,41.3,41.5,21,32.6,58,103.3,79,135.9l-1474.8,55.7h0Z"/>
      <g>
        <path class="cls-6" d="M1240.82,199.48s-120.4-44.3-270.8-44.5c-125.1,0-207.2,19.7-287.2,46.4,0,0,487.1,127.1,496.8,122.5,9.8-4.6,99.6-109.9,88.2-112.9s-27-11.5-27-11.5Z"/>
        <path class="cls-13" d="M892.52,220.68c1.6-2.6,20.6-25.4,57.4-29.3,36.8-3.9,51.4-18.4,23.4-22.4-47.5-6.7-56.2-12.7-56.2-12.7l12.1-.6s9.2,5.4,39.3,7.2c12.5.8,40.5,2.6,37.7,16.5-2.7,13.9-23.7,25-23.7,25,0,0-19.8.3-20.6,0-.7,0-69.4,16.2-69.4,16.2h0v.1Z"/>
        <g>
          <path class="cls-13" d="M998.32,157.38c-.3-.4-1.1-11.8-1.1-11.8l-19.2-1-9.8-20.7-10.1,20.4v12l20.2.5,20,.6h0Z"/>
          <path class="cls-15" d="M965.52,156.58l-.2-9s0-2.3,2.1-2.3,1.2.2,1.7.6c.4.4.7,1,.7,1.6v9.4l-4.3-.3Z"/>
          <path class="cls-15" d="M987.12,125.78l-18.9-1.9,9.8,20.7,19.3,1-10.2-19.8h0Z"/>
          <g>
            <path class="cls-14" d="M973.12,153.48h2.4v-7.9h-2.7l.3,7.9Z"/>
            <path class="cls-14" d="M981.02,153.98h2.5v-7.5h-2.8l.3,7.5Z"/>
            <path class="cls-14" d="M991.72,147.08v7c-.1,0,2.6,0,2.6,0v-6.9h-2.6v-.1Z"/>
            <path class="cls-14" d="M986.12,146.88v7.2h2.9l-.2-7.2h-2.7Z"/>
            <path class="cls-14" d="M960.92,153.68h2.4v-7.9h-2.7l.3,7.9Z"/>
          </g>
        </g>
      </g>
      <g>
        <path class="cls-4" d="M859.32,153.18l1.7,10.4"/>
        <g>
          <path class="cls-8" d="M865.52,145.78c1.1,6.8-1.9,8.6-5.9,9.3-4,.6-7.4-.1-8.5-6.9s.5-17.1,4.5-17.8,8.8,8.6,9.9,15.4Z"/>
          <path class="cls-11" d="M860.82,141.78c-.3-.1-.6,0-.7.3l-1.4,3.7-.8-4.5,1.1-3.1c.1-.3-.1-.6-.3-.7-.3,0-.6,0-.7.3l-.4,1.2-.6-3.7c0-.3-.3-.5-.6-.5s-.5.3-.5.6l.6,3.6-.7-.9c-.2-.2-.5-.3-.8,0-.2.2-.3.5,0,.8l2,2.5.8,4.7-2.5-3.1c-.2-.2-.5-.3-.8-.1s-.3.5,0,.8l3.7,4.7.8,4.5c0,.3.3.5.6.5h.1c.3-.1.5-.3.5-.6l-.8-4.7,2-5.6c0-.2-.1-.5-.4-.6l-.2-.1Z"/>
        </g>
      </g>
      <g>
        <path class="cls-4" d="M1049.62,155.28l-1,8.5"/>
        <g>
          <path class="cls-8" d="M1056.12,150.98c-.7,5.6-3.5,6.3-6.7,5.8-3.2-.4-5.7-1.8-5-7.3s4.4-13.2,7.6-12.8c3.2.4,4.9,8.7,4.1,14.3Z"/>
          <path class="cls-11" d="M1053.42,146.58c-.2-.2-.6-.1-.8.1l-1.6,2.2.4-3.3,1.5-2.1c.2-.2.1-.6-.1-.8s-.6,0-.8,0l-.3.4.3-2.5c0-.3-.2-.6-.5-.6s-.6.2-.6.5l-.3,2.6-.2-.5c0-.3-.4-.4-.7-.3s-.4.4-.3.7l.9,2.4-.4,3.3-1.1-2.6c0-.3-.4-.4-.7-.3s-.4.4-.3.7l1.8,4.5-.5,3.8c0,.3.2.6.5.6h0c.3,0,.5-.2.6-.5l.5-3.7,2.8-3.9c.1-.2.1-.6-.2-.8l.1.1Z"/>
        </g>
      </g>
      <g>
        <path class="cls-4" d="M1154.92,180.78l-3.2,9.2"/>
        <g>
          <path class="cls-8" d="M1163.22,177.48c-2.1,6.1-5.4,6.2-8.9,4.9-3.5-1.2-6-3.4-3.9-9.4s8-13.7,11.5-12.5,3.5,10.9,1.3,17Z"/>
          <path class="cls-11" d="M1161.42,168.38c.2-.2.2-.6,0-.8s-.6-.2-.8,0l-.7.6,1.1-3.1c.1-.3-.1-.6-.3-.7-.3,0-.6,0-.7.3l-1.1,3.2-.2-1c-.1-.3-.4-.5-.7-.4s-.5.4-.4.7l.6,2.9-1.4,4-.6-3.5c0-.3-.3-.5-.6-.5s-.5.3-.5.6l.9,5.6-1.4,3.9c0,.3,0,.6.3.7h.2c.2,0,.4-.1.5-.4l1.4-4.1,4.1-3.6c.2-.2.3-.6,0-.8-.2-.2-.6-.3-.8,0l-2.6,2.3,1.3-3.8,2.4-2.1h0Z"/>
        </g>
      </g>
      <g>
        <path class="cls-7" d="M.52,108.98s671.3,10.5,817.9,99.1c0,0-796.1,81.2-803.5,76.2C7.42,279.18.52,108.98.52,108.98h0Z"/>
        <path class="cls-9" d="M577.12,199.88c1.9-1,37.2-35.2,108.2-36.1,0,0,9.7,2.4,13,3.2,3.2.8,12.2,3.3,12.2,3.3,0,0-39.1,1.9-60.7,32-18,24.9-72.7-2.4-72.7-2.4Z"/>
        <g>
          <path class="cls-3" d="M502.22,110.58v34.7"/>
          <path class="cls-5" d="M526.22,89.68c0,22.8-10.7,27-24,27s-24-4.3-24-27,10.7-55.3,24-55.3,24,32.6,24,55.3Z"/>
        </g>
        <g>
          <path class="cls-1" d="M588.52,112.48v39.8"/>
          <path class="cls-10" d="M616.02,88.58c0,26.1-12.3,31-27.5,31s-27.5-4.9-27.5-31,12.3-63.4,27.5-63.4,27.5,37.3,27.5,63.4Z"/>
        </g>
        <g>
          <path class="cls-2" d="M658.72,143.08v18.5"/>
          <path class="cls-10" d="M671.52,131.98c0,12.1-5.7,14.4-12.8,14.4s-12.8-2.3-12.8-14.4,5.7-29.5,12.8-29.5,12.8,17.3,12.8,29.5Z"/>
        </g>
      </g>
      <path class="cls-7" d="M1998.02,104.58s-777.3,24.5-881,121.4c0,0,418.7,28.9,426,23.7s494.9,5.6,485,4.8-30-149.9-30-149.9h0Z"/>
    </g>
  </g>
</svg>