<svg width="108" height="94" viewBox="0 0 108 94" fill="none" xmlns="http://www.w3.org/2000/svg">
<rect x="55.7071" y="42.9838" width="13" height="13" transform="rotate(-45.5235 55.7071 42.9838)" fill="white" stroke="#034F7A"/>
<rect x="66.7071" y="53.9838" width="13" height="13" transform="rotate(-45.5235 66.7071 53.9838)" fill="#034F7A" stroke="white"/>
<rect x="55.7071" y="20.9838" width="13" height="13" transform="rotate(-45.5235 55.7071 20.9838)" fill="#034F7A" stroke="white"/>
<rect x="44.7071" y="31.9838" width="13" height="13" transform="rotate(-45.5235 44.7071 31.9838)" fill="#034F7A" stroke="white"/>
<rect x="44.7071" y="53.9838" width="13" height="13" transform="rotate(-45.5235 44.7071 53.9838)" fill="white" stroke="#034F7A"/>
<rect x="33.7071" y="42.9838" width="13" height="13" transform="rotate(-45.5235 33.7071 42.9838)" fill="white" stroke="#034F7A"/>
<rect x="22.7071" y="53.9838" width="13" height="13" transform="rotate(-45.5235 22.7071 53.9838)" fill="#034F7A" stroke="white"/>
<rect x="11.7071" y="42.9838" width="13" height="13" transform="rotate(-45.5235 11.7071 42.9838)" fill="white" stroke="#034F7A"/>
<rect x="0.707077" y="53.9838" width="13" height="13" transform="rotate(-45.5235 0.707077 53.9838)" fill="white" stroke="#034F7A"/>
<rect x="22.7071" y="31.9838" width="13" height="13" transform="rotate(-45.5235 22.7071 31.9838)" fill="white" stroke="#034F7A"/>
<rect x="33.7071" y="20.9838" width="13" height="13" transform="rotate(-45.5235 33.7071 20.9838)" fill="#034F7A" stroke="white"/>
<rect x="44.7071" y="9.98377" width="13" height="13" transform="rotate(-45.5235 44.7071 9.98377)" fill="#034F7A" stroke="white"/>
<rect x="66.7071" y="31.9838" width="13" height="13" transform="rotate(-45.5235 66.7071 31.9838)" fill="white" stroke="#034F7A"/>
<rect x="77.7071" y="42.9838" width="13" height="13" transform="rotate(-45.5235 77.7071 42.9838)" fill="white" stroke="#034F7A"/>
<rect x="88.7071" y="53.9838" width="13" height="13" transform="rotate(-45.5235 88.7071 53.9838)" fill="white" stroke="#034F7A"/>
<mask id="path-16-outside-1_35_11607" maskUnits="userSpaceOnUse" x="3" y="64" width="103" height="15" fill="black">
<rect fill="white" x="3" y="64" width="103" height="15"/>
<path d="M10.294 77H6.528C5.67867 77 5.04867 76.8227 4.638 76.468C4.22733 76.104 4.022 75.5393 4.022 74.774V68.138C4.022 67.3633 4.22733 66.7987 4.638 66.444C5.04867 66.08 5.67867 65.898 6.528 65.898H10.294V67.48H6.01C5.87933 67.48 5.814 67.5453 5.814 67.676V75.236C5.814 75.3573 5.87933 75.418 6.01 75.418H10.294V77ZM17.9092 65.898H19.6592V77H17.9092V72.128H13.5972V77H11.8332V65.898H13.5972V70.602H17.9092V65.898ZM28.2891 77L27.6591 74.214H23.4171L22.7031 77H21.0651L23.5991 67.634C23.7298 67.158 23.8651 66.794 24.0051 66.542C24.1451 66.2807 24.3458 66.0987 24.6071 65.996C24.8685 65.8933 25.2325 65.8467 25.6991 65.856L27.4351 65.898L30.0531 77H28.2891ZM25.1391 67.606L23.7951 72.702H27.3231L26.1051 67.41H25.3351C25.2231 67.41 25.1578 67.4753 25.1391 67.606ZM31.509 77V65.898H33.273V70.63H35.555C35.6204 70.63 35.6624 70.616 35.681 70.588C35.6997 70.5507 35.723 70.4993 35.751 70.434L37.669 65.898H39.433L37.697 69.916C37.5197 70.3267 37.361 70.6487 37.221 70.882C37.0904 71.106 36.9084 71.274 36.675 71.386C36.9364 71.4887 37.1417 71.6567 37.291 71.89C37.4497 72.1233 37.6317 72.45 37.837 72.87L39.853 77H37.977L35.751 72.338C35.723 72.2727 35.6997 72.226 35.681 72.198C35.6624 72.17 35.6157 72.156 35.541 72.156H33.273V77H31.509ZM41.2151 77V65.898L45.8911 65.828C46.7591 65.8093 47.4124 66.0053 47.8511 66.416C48.2991 66.8173 48.5231 67.4147 48.5231 68.208V70.196C48.5231 71.3813 48.0097 72.1327 46.9831 72.45C47.2631 72.646 47.4964 73.0147 47.6831 73.556L48.9011 77H47.1231L45.7231 72.87C45.6951 72.786 45.6624 72.73 45.6251 72.702C45.5971 72.6647 45.5364 72.646 45.4431 72.646H42.9791V77H41.2151ZM46.4931 67.368H42.9791V71.134H46.4931C46.6424 71.134 46.7171 71.0547 46.7171 70.896V67.592C46.7171 67.4427 46.6424 67.368 46.4931 67.368ZM56.877 77L56.247 74.214H52.005L51.291 77H49.653L52.187 67.634C52.3177 67.158 52.453 66.794 52.593 66.542C52.733 66.2807 52.9337 66.0987 53.195 65.996C53.4564 65.8933 53.8204 65.8467 54.287 65.856L56.023 65.898L58.641 77H56.877ZM53.727 67.606L52.383 72.702H55.911L54.693 67.41H53.923C53.811 67.41 53.7457 67.4753 53.727 67.606ZM64.8149 77.07L60.0129 77V65.898L64.6049 65.828C65.4636 65.8093 66.1123 66.0053 66.5509 66.416C66.9989 66.8173 67.2229 67.4147 67.2229 68.208V69.622C67.2229 70.4247 66.9289 70.9893 66.3409 71.316C66.7236 71.4653 67.0083 71.694 67.1949 72.002C67.3816 72.3007 67.4749 72.6973 67.4749 73.192V74.662C67.4749 75.4367 67.2463 76.034 66.7889 76.454C66.3409 76.874 65.6829 77.0793 64.8149 77.07ZM65.1929 67.34H61.7769V70.63H65.1929C65.3516 70.63 65.4309 70.5553 65.4309 70.406V67.564C65.4309 67.4147 65.3516 67.34 65.1929 67.34ZM65.4589 72.086H61.7769V75.544H65.4589C65.6083 75.544 65.6829 75.4693 65.6829 75.32V72.31C65.6829 72.1607 65.6083 72.086 65.4589 72.086ZM69.5793 67.998C69.5793 67.2233 69.78 66.6587 70.1813 66.304C70.592 65.9493 71.222 65.772 72.0713 65.772H74.9553C75.7953 65.772 76.4206 65.9493 76.8313 66.304C77.242 66.6587 77.4473 67.2233 77.4473 67.998V74.914C77.4473 75.6793 77.242 76.2393 76.8313 76.594C76.4206 76.9487 75.7953 77.126 74.9553 77.126H72.0713C71.222 77.126 70.592 76.9487 70.1813 76.594C69.78 76.2393 69.5793 75.6793 69.5793 74.914V67.998ZM71.5533 67.354C71.432 67.354 71.3713 67.4147 71.3713 67.536V75.362C71.3713 75.4833 71.432 75.544 71.5533 75.544H75.4593C75.5806 75.544 75.6413 75.4833 75.6413 75.362V67.536C75.6413 67.4147 75.5806 67.354 75.4593 67.354H71.5533ZM79.7424 77V65.898L84.4184 65.828C85.2864 65.8093 85.9398 66.0053 86.3784 66.416C86.8264 66.8173 87.0504 67.4147 87.0504 68.208V70.196C87.0504 71.3813 86.5371 72.1327 85.5104 72.45C85.7904 72.646 86.0238 73.0147 86.2104 73.556L87.4284 77H85.6504L84.2504 72.87C84.2224 72.786 84.1898 72.73 84.1524 72.702C84.1244 72.6647 84.0638 72.646 83.9704 72.646H81.5064V77H79.7424ZM85.0204 67.368H81.5064V71.134H85.0204C85.1698 71.134 85.2444 71.0547 85.2444 70.896V67.592C85.2444 67.4427 85.1698 67.368 85.0204 67.368ZM90.7704 77V67.424H88.0684V65.898H95.2224V67.424H92.5344V77H90.7704ZM99.1058 77V73.01C98.6952 72.9353 98.3918 72.7767 98.1958 72.534C97.9998 72.282 97.8038 71.904 97.6078 71.4L95.5078 65.898H97.3698L99.4418 71.358C99.4792 71.4793 99.5538 71.54 99.6658 71.54H100.408C100.52 71.54 100.595 71.4793 100.632 71.358L102.718 65.898H104.482L102.326 71.414C102.186 71.7687 102.055 72.058 101.934 72.282C101.822 72.506 101.682 72.6787 101.514 72.8C101.355 72.912 101.136 72.9867 100.856 73.024V77H99.1058Z"/>
</mask>
<path d="M10.294 77H6.528C5.67867 77 5.04867 76.8227 4.638 76.468C4.22733 76.104 4.022 75.5393 4.022 74.774V68.138C4.022 67.3633 4.22733 66.7987 4.638 66.444C5.04867 66.08 5.67867 65.898 6.528 65.898H10.294V67.48H6.01C5.87933 67.48 5.814 67.5453 5.814 67.676V75.236C5.814 75.3573 5.87933 75.418 6.01 75.418H10.294V77ZM17.9092 65.898H19.6592V77H17.9092V72.128H13.5972V77H11.8332V65.898H13.5972V70.602H17.9092V65.898ZM28.2891 77L27.6591 74.214H23.4171L22.7031 77H21.0651L23.5991 67.634C23.7298 67.158 23.8651 66.794 24.0051 66.542C24.1451 66.2807 24.3458 66.0987 24.6071 65.996C24.8685 65.8933 25.2325 65.8467 25.6991 65.856L27.4351 65.898L30.0531 77H28.2891ZM25.1391 67.606L23.7951 72.702H27.3231L26.1051 67.41H25.3351C25.2231 67.41 25.1578 67.4753 25.1391 67.606ZM31.509 77V65.898H33.273V70.63H35.555C35.6204 70.63 35.6624 70.616 35.681 70.588C35.6997 70.5507 35.723 70.4993 35.751 70.434L37.669 65.898H39.433L37.697 69.916C37.5197 70.3267 37.361 70.6487 37.221 70.882C37.0904 71.106 36.9084 71.274 36.675 71.386C36.9364 71.4887 37.1417 71.6567 37.291 71.89C37.4497 72.1233 37.6317 72.45 37.837 72.87L39.853 77H37.977L35.751 72.338C35.723 72.2727 35.6997 72.226 35.681 72.198C35.6624 72.17 35.6157 72.156 35.541 72.156H33.273V77H31.509ZM41.2151 77V65.898L45.8911 65.828C46.7591 65.8093 47.4124 66.0053 47.8511 66.416C48.2991 66.8173 48.5231 67.4147 48.5231 68.208V70.196C48.5231 71.3813 48.0097 72.1327 46.9831 72.45C47.2631 72.646 47.4964 73.0147 47.6831 73.556L48.9011 77H47.1231L45.7231 72.87C45.6951 72.786 45.6624 72.73 45.6251 72.702C45.5971 72.6647 45.5364 72.646 45.4431 72.646H42.9791V77H41.2151ZM46.4931 67.368H42.9791V71.134H46.4931C46.6424 71.134 46.7171 71.0547 46.7171 70.896V67.592C46.7171 67.4427 46.6424 67.368 46.4931 67.368ZM56.877 77L56.247 74.214H52.005L51.291 77H49.653L52.187 67.634C52.3177 67.158 52.453 66.794 52.593 66.542C52.733 66.2807 52.9337 66.0987 53.195 65.996C53.4564 65.8933 53.8204 65.8467 54.287 65.856L56.023 65.898L58.641 77H56.877ZM53.727 67.606L52.383 72.702H55.911L54.693 67.41H53.923C53.811 67.41 53.7457 67.4753 53.727 67.606ZM64.8149 77.07L60.0129 77V65.898L64.6049 65.828C65.4636 65.8093 66.1123 66.0053 66.5509 66.416C66.9989 66.8173 67.2229 67.4147 67.2229 68.208V69.622C67.2229 70.4247 66.9289 70.9893 66.3409 71.316C66.7236 71.4653 67.0083 71.694 67.1949 72.002C67.3816 72.3007 67.4749 72.6973 67.4749 73.192V74.662C67.4749 75.4367 67.2463 76.034 66.7889 76.454C66.3409 76.874 65.6829 77.0793 64.8149 77.07ZM65.1929 67.34H61.7769V70.63H65.1929C65.3516 70.63 65.4309 70.5553 65.4309 70.406V67.564C65.4309 67.4147 65.3516 67.34 65.1929 67.34ZM65.4589 72.086H61.7769V75.544H65.4589C65.6083 75.544 65.6829 75.4693 65.6829 75.32V72.31C65.6829 72.1607 65.6083 72.086 65.4589 72.086ZM69.5793 67.998C69.5793 67.2233 69.78 66.6587 70.1813 66.304C70.592 65.9493 71.222 65.772 72.0713 65.772H74.9553C75.7953 65.772 76.4206 65.9493 76.8313 66.304C77.242 66.6587 77.4473 67.2233 77.4473 67.998V74.914C77.4473 75.6793 77.242 76.2393 76.8313 76.594C76.4206 76.9487 75.7953 77.126 74.9553 77.126H72.0713C71.222 77.126 70.592 76.9487 70.1813 76.594C69.78 76.2393 69.5793 75.6793 69.5793 74.914V67.998ZM71.5533 67.354C71.432 67.354 71.3713 67.4147 71.3713 67.536V75.362C71.3713 75.4833 71.432 75.544 71.5533 75.544H75.4593C75.5806 75.544 75.6413 75.4833 75.6413 75.362V67.536C75.6413 67.4147 75.5806 67.354 75.4593 67.354H71.5533ZM79.7424 77V65.898L84.4184 65.828C85.2864 65.8093 85.9398 66.0053 86.3784 66.416C86.8264 66.8173 87.0504 67.4147 87.0504 68.208V70.196C87.0504 71.3813 86.5371 72.1327 85.5104 72.45C85.7904 72.646 86.0238 73.0147 86.2104 73.556L87.4284 77H85.6504L84.2504 72.87C84.2224 72.786 84.1898 72.73 84.1524 72.702C84.1244 72.6647 84.0638 72.646 83.9704 72.646H81.5064V77H79.7424ZM85.0204 67.368H81.5064V71.134H85.0204C85.1698 71.134 85.2444 71.0547 85.2444 70.896V67.592C85.2444 67.4427 85.1698 67.368 85.0204 67.368ZM90.7704 77V67.424H88.0684V65.898H95.2224V67.424H92.5344V77H90.7704ZM99.1058 77V73.01C98.6952 72.9353 98.3918 72.7767 98.1958 72.534C97.9998 72.282 97.8038 71.904 97.6078 71.4L95.5078 65.898H97.3698L99.4418 71.358C99.4792 71.4793 99.5538 71.54 99.6658 71.54H100.408C100.52 71.54 100.595 71.4793 100.632 71.358L102.718 65.898H104.482L102.326 71.414C102.186 71.7687 102.055 72.058 101.934 72.282C101.822 72.506 101.682 72.6787 101.514 72.8C101.355 72.912 101.136 72.9867 100.856 73.024V77H99.1058Z" fill="white"/>
<path d="M10.294 77V78H11.294V77H10.294ZM4.638 76.468L3.97464 77.2164L3.98438 77.2248L4.638 76.468ZM4.638 66.444L5.29167 67.2009L5.30131 67.1923L4.638 66.444ZM10.294 65.898H11.294V64.898H10.294V65.898ZM10.294 67.48V68.48H11.294V67.48H10.294ZM10.294 75.418H11.294V74.418H10.294V75.418ZM10.294 76H6.528V78H10.294V76ZM6.528 76C5.78964 76 5.44236 75.8414 5.29162 75.7112L3.98438 77.2248C4.65498 77.804 5.56769 78 6.528 78V76ZM5.30131 75.7197C5.17901 75.6113 5.022 75.3702 5.022 74.774H3.022C3.022 75.7085 3.27565 76.5967 3.97469 77.2163L5.30131 75.7197ZM5.022 74.774V68.138H3.022V74.774H5.022ZM5.022 68.138C5.022 67.5258 5.18224 67.2953 5.29162 67.2008L3.98438 65.6872C3.27242 66.302 3.022 67.2009 3.022 68.138H5.022ZM5.30131 67.1923C5.45161 67.0591 5.79472 66.898 6.528 66.898V64.898C5.56261 64.898 4.64572 65.1009 3.97469 65.6957L5.30131 67.1923ZM6.528 66.898H10.294V64.898H6.528V66.898ZM9.294 65.898V67.48H11.294V65.898H9.294ZM10.294 66.48H6.01V68.48H10.294V66.48ZM6.01 66.48C5.79052 66.48 5.44224 66.5355 5.15589 66.8219C4.86955 67.1082 4.814 67.4565 4.814 67.676H6.814C6.814 67.7648 6.79112 68.0151 6.57011 68.2361C6.34909 68.4571 6.09881 68.48 6.01 68.48V66.48ZM4.814 67.676V75.236H6.814V67.676H4.814ZM4.814 75.236C4.814 75.4706 4.88063 75.8249 5.18255 76.1053C5.47049 76.3727 5.80817 76.418 6.01 76.418V74.418C6.08116 74.418 6.32085 74.433 6.54345 74.6397C6.78004 74.8594 6.814 75.1227 6.814 75.236H4.814ZM6.01 76.418H10.294V74.418H6.01V76.418ZM9.294 75.418V77H11.294V75.418H9.294ZM17.9092 65.898V64.898H16.9092V65.898H17.9092ZM19.6592 65.898H20.6592V64.898H19.6592V65.898ZM19.6592 77V78H20.6592V77H19.6592ZM17.9092 77H16.9092V78H17.9092V77ZM17.9092 72.128H18.9092V71.128H17.9092V72.128ZM13.5972 72.128V71.128H12.5972V72.128H13.5972ZM13.5972 77V78H14.5972V77H13.5972ZM11.8332 77H10.8332V78H11.8332V77ZM11.8332 65.898V64.898H10.8332V65.898H11.8332ZM13.5972 65.898H14.5972V64.898H13.5972V65.898ZM13.5972 70.602H12.5972V71.602H13.5972V70.602ZM17.9092 70.602V71.602H18.9092V70.602H17.9092ZM17.9092 66.898H19.6592V64.898H17.9092V66.898ZM18.6592 65.898V77H20.6592V65.898H18.6592ZM19.6592 76H17.9092V78H19.6592V76ZM18.9092 77V72.128H16.9092V77H18.9092ZM17.9092 71.128H13.5972V73.128H17.9092V71.128ZM12.5972 72.128V77H14.5972V72.128H12.5972ZM13.5972 76H11.8332V78H13.5972V76ZM12.8332 77V65.898H10.8332V77H12.8332ZM11.8332 66.898H13.5972V64.898H11.8332V66.898ZM12.5972 65.898V70.602H14.5972V65.898H12.5972ZM13.5972 71.602H17.9092V69.602H13.5972V71.602ZM18.9092 70.602V65.898H16.9092V70.602H18.9092ZM28.2891 77L27.3138 77.2206L27.49 78H28.2891V77ZM27.6591 74.214L28.6345 73.9934L28.4583 73.214H27.6591V74.214ZM23.4171 74.214V73.214H22.6411L22.4484 73.9657L23.4171 74.214ZM22.7031 77V78H23.4792L23.6718 77.2483L22.7031 77ZM21.0651 77L20.0998 76.7388L19.7586 78H21.0651V77ZM23.5991 67.634L22.6348 67.3693L22.6338 67.3728L23.5991 67.634ZM24.0051 66.542L24.8793 67.0276L24.883 67.021L24.8866 67.0142L24.0051 66.542ZM24.6071 65.996L24.9728 66.9268L24.9728 66.9268L24.6071 65.996ZM25.6991 65.856L25.7233 64.8563L25.7191 64.8562L25.6991 65.856ZM27.4351 65.898L28.4084 65.6685L28.2312 64.917L27.4593 64.8983L27.4351 65.898ZM30.0531 77V78H31.3164L31.0264 76.7705L30.0531 77ZM25.1391 67.606L26.1061 67.861L26.1209 67.8049L26.1291 67.7474L25.1391 67.606ZM23.7951 72.702L22.8282 72.447L22.4972 73.702H23.7951V72.702ZM27.3231 72.702V73.702H28.5794L28.2977 72.4777L27.3231 72.702ZM26.1051 67.41L27.0797 67.1857L26.9011 66.41H26.1051V67.41ZM29.2645 76.7794L28.6345 73.9934L26.6838 74.4346L27.3138 77.2206L29.2645 76.7794ZM27.6591 73.214H23.4171V75.214H27.6591V73.214ZM22.4484 73.9657L21.7344 76.7517L23.6718 77.2483L24.3858 74.4623L22.4484 73.9657ZM22.7031 76H21.0651V78H22.7031V76ZM22.0304 77.2612L24.5644 67.8952L22.6338 67.3728L20.0998 76.7388L22.0304 77.2612ZM24.5635 67.8987C24.6857 67.4535 24.7959 67.1777 24.8793 67.0276L23.131 66.0564C22.9343 66.4103 22.7739 66.8625 22.6348 67.3693L24.5635 67.8987ZM24.8866 67.0142C24.9213 66.9494 24.9454 66.9375 24.9728 66.9268L24.2415 65.0652C23.7462 65.2598 23.3689 65.6119 23.1237 66.0698L24.8866 67.0142ZM24.9728 66.9268C25.0564 66.8939 25.2685 66.8476 25.6791 66.8558L25.7191 64.8562C25.1965 64.8457 24.6806 64.8928 24.2415 65.0652L24.9728 66.9268ZM25.675 66.8557L27.411 66.8977L27.4593 64.8983L25.7233 64.8563L25.675 66.8557ZM26.4618 66.1275L29.0798 77.2295L31.0264 76.7705L28.4084 65.6685L26.4618 66.1275ZM30.0531 76H28.2891V78H30.0531V76ZM24.1722 67.351L22.8282 72.447L24.7621 72.957L26.1061 67.861L24.1722 67.351ZM23.7951 73.702H27.3231V71.702H23.7951V73.702ZM28.2977 72.4777L27.0797 67.1857L25.1306 67.6343L26.3486 72.9263L28.2977 72.4777ZM26.1051 66.41H25.3351V68.41H26.1051V66.41ZM25.3351 66.41C25.074 66.41 24.7538 66.4931 24.495 66.7519C24.2562 66.9908 24.1764 67.274 24.1492 67.4646L26.1291 67.7474C26.1205 67.8074 26.0828 67.9926 25.9092 68.1661C25.7158 68.3595 25.4843 68.41 25.3351 68.41V66.41ZM31.509 77H30.509V78H31.509V77ZM31.509 65.898V64.898H30.509V65.898H31.509ZM33.273 65.898H34.273V64.898H33.273V65.898ZM33.273 70.63H32.273V71.63H33.273V70.63ZM35.681 70.588L36.5131 71.1427L36.5476 71.0909L36.5755 71.0352L35.681 70.588ZM35.751 70.434L36.6702 70.8279L36.6721 70.8235L35.751 70.434ZM37.669 65.898V64.898H37.0061L36.748 65.5085L37.669 65.898ZM39.433 65.898L40.351 66.2946L40.9544 64.898H39.433V65.898ZM37.697 69.916L36.779 69.5194L36.779 69.5196L37.697 69.916ZM37.221 70.882L36.3635 70.3675L36.3573 70.3781L37.221 70.882ZM36.675 71.386L36.2423 70.4845L34.1733 71.4776L36.3094 72.3168L36.675 71.386ZM37.291 71.89L36.4488 72.4291L36.4563 72.4408L36.4641 72.4523L37.291 71.89ZM37.837 72.87L38.7357 72.4313L38.7354 72.4308L37.837 72.87ZM39.853 77V78H41.4539L40.7517 76.5613L39.853 77ZM37.977 77L37.0746 77.4309L37.3464 78H37.977V77ZM35.751 72.338L34.8319 72.7319L34.8399 72.7506L34.8486 72.7689L35.751 72.338ZM35.681 72.198L36.5131 71.6433L36.5131 71.6433L35.681 72.198ZM33.273 72.156V71.156H32.273V72.156H33.273ZM33.273 77V78H34.273V77H33.273ZM32.509 77V65.898H30.509V77H32.509ZM31.509 66.898H33.273V64.898H31.509V66.898ZM32.273 65.898V70.63H34.273V65.898H32.273ZM33.273 71.63H35.555V69.63H33.273V71.63ZM35.555 71.63C35.6588 71.63 36.1898 71.6276 36.5131 71.1427L34.849 70.0333C34.997 69.8112 35.1961 69.7119 35.3193 69.6708C35.4364 69.6318 35.5264 69.63 35.555 69.63V71.63ZM36.5755 71.0352C36.6069 70.9724 36.639 70.9007 36.6702 70.8279L34.8319 70.0401C34.8071 70.098 34.7925 70.1289 34.7866 70.1408L36.5755 71.0352ZM36.6721 70.8235L38.5901 66.2875L36.748 65.5085L34.83 70.0445L36.6721 70.8235ZM37.669 66.898H39.433V64.898H37.669V66.898ZM38.515 65.5014L36.779 69.5194L38.615 70.3126L40.351 66.2946L38.515 65.5014ZM36.779 69.5196C36.6096 69.9119 36.471 70.1884 36.3635 70.3675L38.0785 71.3965C38.2511 71.1089 38.4298 70.7415 38.6151 70.3124L36.779 69.5196ZM36.3573 70.3781C36.3271 70.4298 36.2951 70.4591 36.2423 70.4845L37.1078 72.2875C37.5217 72.0888 37.8536 71.7822 38.0848 71.3859L36.3573 70.3781ZM36.3094 72.3168C36.3774 72.3435 36.4147 72.3758 36.4488 72.4291L38.1333 71.3509C37.8687 70.9375 37.4953 70.6339 37.0407 70.4552L36.3094 72.3168ZM36.4641 72.4523C36.5844 72.6293 36.7425 72.9081 36.9386 73.3092L38.7354 72.4308C38.5209 71.9919 38.315 71.6174 38.118 71.3277L36.4641 72.4523ZM36.9384 73.3087L38.9544 77.4387L40.7517 76.5613L38.7357 72.4313L36.9384 73.3087ZM39.853 76H37.977V78H39.853V76ZM38.8794 76.5691L36.6534 71.9071L34.8486 72.7689L37.0746 77.4309L38.8794 76.5691ZM36.6702 71.9441C36.6385 71.8702 36.5856 71.7521 36.5131 71.6433L34.849 72.7527C34.8425 72.743 34.8373 72.7347 34.8335 72.7283C34.8295 72.7219 34.8265 72.7166 34.8243 72.7128C34.8221 72.7089 34.8206 72.7059 34.8196 72.7041C34.8187 72.7023 34.8181 72.7013 34.8181 72.7012C34.8181 72.7012 34.8193 72.7037 34.8218 72.7092C34.8243 72.7146 34.8277 72.7221 34.8319 72.7319L36.6702 71.9441ZM36.5131 71.6433C36.3277 71.3652 36.0683 71.2533 35.9194 71.2087C35.7672 71.163 35.6297 71.156 35.541 71.156V73.156C35.527 73.156 35.4502 73.156 35.3447 73.1243C35.2425 73.0937 35.0157 73.0028 34.849 72.7527L36.5131 71.6433ZM35.541 71.156H33.273V73.156H35.541V71.156ZM32.273 72.156V77H34.273V72.156H32.273ZM33.273 76H31.509V78H33.273V76ZM41.2151 77H40.2151V78H41.2151V77ZM41.2151 65.898L41.2001 64.8981L40.2151 64.9129V65.898H41.2151ZM45.8911 65.828L45.906 66.8279L45.9126 66.8278L45.8911 65.828ZM47.8511 66.416L47.1677 67.146L47.1757 67.1535L47.1838 67.1608L47.8511 66.416ZM46.9831 72.45L46.6878 71.4946L44.7362 72.0978L46.4096 73.2692L46.9831 72.45ZM47.6831 73.556L46.7377 73.882L46.7403 73.8894L47.6831 73.556ZM48.9011 77V78H50.3154L49.8439 76.6666L48.9011 77ZM47.1231 77L46.176 77.321L46.4062 78H47.1231V77ZM45.7231 72.87L44.7744 73.1862L44.776 73.191L45.7231 72.87ZM45.6251 72.702L44.8251 73.302L44.9108 73.4163L45.0251 73.502L45.6251 72.702ZM42.9791 72.646V71.646H41.9791V72.646H42.9791ZM42.9791 77V78H43.9791V77H42.9791ZM42.9791 67.368V66.368H41.9791V67.368H42.9791ZM42.9791 71.134H41.9791V72.134H42.9791V71.134ZM42.2151 77V65.898H40.2151V77H42.2151ZM41.23 66.8979L45.906 66.8279L45.8761 64.8281L41.2001 64.8981L41.23 66.8979ZM45.9126 66.8278C46.6355 66.8122 46.9904 66.9801 47.1677 67.146L48.5345 65.686C47.8345 65.0306 46.8827 64.8064 45.8696 64.8282L45.9126 66.8278ZM47.1838 67.1608C47.358 67.3168 47.5231 67.6032 47.5231 68.208H49.5231C49.5231 67.2261 49.2402 66.3178 48.5183 65.6712L47.1838 67.1608ZM47.5231 68.208V70.196H49.5231V68.208H47.5231ZM47.5231 70.196C47.5231 70.6477 47.4257 70.9186 47.3124 71.0844C47.2053 71.2411 47.0258 71.3901 46.6878 71.4946L47.2784 73.4054C47.967 73.1926 48.5575 72.8073 48.9638 72.2126C49.3638 71.6271 49.5231 70.9296 49.5231 70.196H47.5231ZM46.4096 73.2692C46.4347 73.2868 46.5778 73.4183 46.7377 73.882L48.6285 73.23C48.415 72.6111 48.0915 72.0052 47.5565 71.6308L46.4096 73.2692ZM46.7403 73.8894L47.9583 77.3334L49.8439 76.6666L48.6259 73.2226L46.7403 73.8894ZM48.9011 76H47.1231V78H48.9011V76ZM48.0701 76.679L46.6701 72.549L44.776 73.191L46.176 77.321L48.0701 76.679ZM46.6718 72.5538C46.6285 72.4241 46.5161 72.1203 46.2251 71.902L45.0251 73.502C44.904 73.4112 44.8403 73.3143 44.8138 73.2689C44.7855 73.2203 44.7749 73.1876 44.7744 73.1862L46.6718 72.5538ZM46.4251 72.102C46.2458 71.8629 46.0135 71.7537 45.8527 71.7042C45.6937 71.6553 45.5472 71.646 45.4431 71.646V73.646C45.4323 73.646 45.3628 73.646 45.2645 73.6158C45.1643 73.585 44.9764 73.5038 44.8251 73.302L46.4251 72.102ZM45.4431 71.646H42.9791V73.646H45.4431V71.646ZM41.9791 72.646V77H43.9791V72.646H41.9791ZM42.9791 76H41.2151V78H42.9791V76ZM46.4931 66.368H42.9791V68.368H46.4931V66.368ZM41.9791 67.368V71.134H43.9791V67.368H41.9791ZM42.9791 72.134H46.4931V70.134H42.9791V72.134ZM46.4931 72.134C46.7379 72.134 47.1011 72.0661 47.3893 71.7599C47.6667 71.4651 47.7171 71.1149 47.7171 70.896H45.7171C45.7171 70.8358 45.7301 70.6046 45.9329 70.3891C46.1464 70.1623 46.3976 70.134 46.4931 70.134V72.134ZM47.7171 70.896V67.592H45.7171V70.896H47.7171ZM47.7171 67.592C47.7171 67.3632 47.6592 67.0079 47.3682 66.7169C47.0772 66.4259 46.7219 66.368 46.4931 66.368V68.368C46.4136 68.368 46.1703 68.3475 45.954 68.1311C45.7376 67.9148 45.7171 67.6715 45.7171 67.592H47.7171ZM56.877 77L55.9017 77.2206L56.0779 78H56.877V77ZM56.247 74.214L57.2224 73.9934L57.0461 73.214H56.247V74.214ZM52.005 74.214V73.214H51.229L51.0363 73.9657L52.005 74.214ZM51.291 77V78H52.0671L52.2597 77.2483L51.291 77ZM49.653 77L48.6877 76.7388L48.3465 78H49.653V77ZM52.187 67.634L51.2227 67.3693L51.2217 67.3728L52.187 67.634ZM52.593 66.542L53.4672 67.0276L53.4709 67.021L53.4745 67.0142L52.593 66.542ZM53.195 65.996L53.5607 66.9268L53.5607 66.9268L53.195 65.996ZM54.287 65.856L54.3112 64.8563L54.307 64.8562L54.287 65.856ZM56.023 65.898L56.9963 65.6685L56.8191 64.917L56.0472 64.8983L56.023 65.898ZM58.641 77V78H59.9043L59.6143 76.7705L58.641 77ZM53.727 67.606L54.694 67.861L54.7088 67.8049L54.717 67.7474L53.727 67.606ZM52.383 72.702L51.4161 72.447L51.0851 73.702H52.383V72.702ZM55.911 72.702V73.702H57.1673L56.8856 72.4777L55.911 72.702ZM54.693 67.41L55.6676 67.1857L55.489 66.41H54.693V67.41ZM57.8524 76.7794L57.2224 73.9934L55.2717 74.4346L55.9017 77.2206L57.8524 76.7794ZM56.247 73.214H52.005V75.214H56.247V73.214ZM51.0363 73.9657L50.3223 76.7517L52.2597 77.2483L52.9737 74.4623L51.0363 73.9657ZM51.291 76H49.653V78H51.291V76ZM50.6183 77.2612L53.1523 67.8952L51.2217 67.3728L48.6877 76.7388L50.6183 77.2612ZM53.1514 67.8987C53.2736 67.4535 53.3838 67.1777 53.4672 67.0276L51.7189 66.0564C51.5222 66.4103 51.3618 66.8625 51.2227 67.3693L53.1514 67.8987ZM53.4745 67.0142C53.5092 66.9494 53.5333 66.9375 53.5607 66.9268L52.8294 65.0652C52.3341 65.2598 51.9568 65.6119 51.7116 66.0698L53.4745 67.0142ZM53.5607 66.9268C53.6443 66.8939 53.8563 66.8476 54.267 66.8558L54.307 64.8562C53.7844 64.8457 53.2685 64.8928 52.8294 65.0652L53.5607 66.9268ZM54.2628 66.8557L55.9988 66.8977L56.0472 64.8983L54.3112 64.8563L54.2628 66.8557ZM55.0497 66.1275L57.6677 77.2295L59.6143 76.7705L56.9963 65.6685L55.0497 66.1275ZM58.641 76H56.877V78H58.641V76ZM52.7601 67.351L51.4161 72.447L53.35 72.957L54.694 67.861L52.7601 67.351ZM52.383 73.702H55.911V71.702H52.383V73.702ZM56.8856 72.4777L55.6676 67.1857L53.7185 67.6343L54.9365 72.9263L56.8856 72.4777ZM54.693 66.41H53.923V68.41H54.693V66.41ZM53.923 66.41C53.6619 66.41 53.3417 66.4931 53.0829 66.7519C52.844 66.9908 52.7643 67.274 52.7371 67.4646L54.717 67.7474C54.7084 67.8074 54.6707 67.9926 54.4971 68.1661C54.3037 68.3595 54.0722 68.41 53.923 68.41V66.41ZM64.8149 77.07L64.8003 78.0699L64.8042 78.0699L64.8149 77.07ZM60.0129 77H59.0129V77.9855L59.9983 77.9999L60.0129 77ZM60.0129 65.898L59.9977 64.8981L59.0129 64.9131V65.898H60.0129ZM64.6049 65.828L64.6202 66.8279L64.6267 66.8278L64.6049 65.828ZM66.5509 66.416L65.8675 67.146L65.8755 67.1535L65.8837 67.1608L66.5509 66.416ZM66.3409 71.316L65.8553 70.4418L63.9964 71.4745L65.9774 72.2476L66.3409 71.316ZM67.1949 72.002L66.3396 72.5204L66.3469 72.532L67.1949 72.002ZM66.7889 76.454L66.1125 75.7174L66.105 75.7245L66.7889 76.454ZM61.7769 67.34V66.34H60.7769V67.34H61.7769ZM61.7769 70.63H60.7769V71.63H61.7769V70.63ZM61.7769 72.086V71.086H60.7769V72.086H61.7769ZM61.7769 75.544H60.7769V76.544H61.7769V75.544ZM64.8295 76.0701L60.0275 76.0001L59.9983 77.9999L64.8003 78.0699L64.8295 76.0701ZM61.0129 77V65.898H59.0129V77H61.0129ZM60.0282 66.8979L64.6202 66.8279L64.5897 64.8281L59.9977 64.8981L60.0282 66.8979ZM64.6267 66.8278C65.3366 66.8123 65.6885 66.9784 65.8675 67.146L67.2343 65.686C66.536 65.0322 65.5906 64.8063 64.5832 64.8282L64.6267 66.8278ZM65.8837 67.1608C66.0578 67.3168 66.2229 67.6032 66.2229 68.208H68.2229C68.2229 67.2261 67.9401 66.3178 67.2182 65.6712L65.8837 67.1608ZM66.2229 68.208V69.622H68.2229V68.208H66.2229ZM66.2229 69.622C66.2229 70.1451 66.0589 70.3287 65.8553 70.4418L66.8266 72.1902C67.799 71.6499 68.2229 70.7042 68.2229 69.622H66.2229ZM65.9774 72.2476C66.1853 72.3287 66.2828 72.4263 66.3397 72.5203L68.0501 71.4837C67.7338 70.9617 67.2618 70.6019 66.7045 70.3844L65.9774 72.2476ZM66.3469 72.532C66.4018 72.6198 66.4749 72.8123 66.4749 73.192H68.4749C68.4749 72.5824 68.3614 71.9815 68.0429 71.472L66.3469 72.532ZM66.4749 73.192V74.662H68.4749V73.192H66.4749ZM66.4749 74.662C66.4749 75.231 66.3146 75.5319 66.1125 75.7175L67.4653 77.1905C68.1779 76.5361 68.4749 75.6424 68.4749 74.662H66.4749ZM66.105 75.7245C65.9109 75.9065 65.543 76.0778 64.8257 76.0701L64.8042 78.0699C65.8228 78.0809 66.771 77.8415 67.4729 77.1835L66.105 75.7245ZM65.1929 66.34H61.7769V68.34H65.1929V66.34ZM60.7769 67.34V70.63H62.7769V67.34H60.7769ZM61.7769 71.63H65.1929V69.63H61.7769V71.63ZM65.1929 71.63C65.4118 71.63 65.762 71.5797 66.0568 71.3022C66.363 71.014 66.4309 70.6508 66.4309 70.406H64.4309C64.4309 70.3105 64.4592 70.0593 64.6861 69.8458C64.9015 69.643 65.1327 69.63 65.1929 69.63V71.63ZM66.4309 70.406V67.564H64.4309V70.406H66.4309ZM66.4309 67.564C66.4309 67.3192 66.363 66.956 66.0568 66.6678C65.762 66.3903 65.4118 66.34 65.1929 66.34V68.34C65.1327 68.34 64.9015 68.327 64.6861 68.1242C64.4592 67.9107 64.4309 67.6595 64.4309 67.564H66.4309ZM65.4589 71.086H61.7769V73.086H65.4589V71.086ZM60.7769 72.086V75.544H62.7769V72.086H60.7769ZM61.7769 76.544H65.4589V74.544H61.7769V76.544ZM65.4589 76.544C65.6877 76.544 66.043 76.4861 66.334 76.1951C66.625 75.9041 66.6829 75.5488 66.6829 75.32H64.6829C64.6829 75.2405 64.7035 74.9972 64.9198 74.7809C65.1362 74.5645 65.3794 74.544 65.4589 74.544V76.544ZM66.6829 75.32V72.31H64.6829V75.32H66.6829ZM66.6829 72.31C66.6829 72.0812 66.625 71.7259 66.334 71.4349C66.043 71.1439 65.6877 71.086 65.4589 71.086V73.086C65.3794 73.086 65.1362 73.0655 64.9198 72.8491C64.7035 72.6328 64.6829 72.3895 64.6829 72.31H66.6829ZM70.1813 66.304L69.5276 65.5471L69.5191 65.5547L70.1813 66.304ZM76.8313 66.304L77.4849 65.5472L77.4849 65.5472L76.8313 66.304ZM76.8313 76.594L77.4849 77.3508L77.4849 77.3508L76.8313 76.594ZM70.1813 76.594L69.5191 77.3434L69.5277 77.3508L70.1813 76.594ZM70.5793 67.998C70.5793 67.3792 70.7386 67.146 70.8435 67.0533L69.5191 65.5547C68.8213 66.1713 68.5793 67.0675 68.5793 67.998H70.5793ZM70.8349 67.0608C70.9857 66.9306 71.3329 66.772 72.0713 66.772V64.772C71.111 64.772 70.1983 64.968 69.5277 65.5472L70.8349 67.0608ZM72.0713 66.772H74.9553V64.772H72.0713V66.772ZM74.9553 66.772C75.681 66.772 76.0253 66.9292 76.1777 67.0608L77.4849 65.5472C76.816 64.9694 75.9096 64.772 74.9553 64.772V66.772ZM76.1777 67.0608C76.2871 67.1553 76.4473 67.3858 76.4473 67.998H78.4473C78.4473 67.0609 78.1969 66.162 77.4849 65.5472L76.1777 67.0608ZM76.4473 67.998V74.914H78.4473V67.998H76.4473ZM76.4473 74.914C76.4473 75.5123 76.2895 75.7406 76.1777 75.8372L77.4849 77.3508C78.1944 76.7381 78.4473 75.8463 78.4473 74.914H76.4473ZM76.1777 75.8372C76.0253 75.9688 75.681 76.126 74.9553 76.126V78.126C75.9096 78.126 76.816 77.9286 77.4849 77.3508L76.1777 75.8372ZM74.9553 76.126H72.0713V78.126H74.9553V76.126ZM72.0713 76.126C71.3329 76.126 70.9857 75.9674 70.8349 75.8372L69.5277 77.3508C70.1983 77.93 71.111 78.126 72.0713 78.126V76.126ZM70.8435 75.8447C70.7363 75.7499 70.5793 75.519 70.5793 74.914H68.5793C68.5793 75.8397 68.8237 76.7288 69.5191 77.3433L70.8435 75.8447ZM70.5793 74.914V67.998H68.5793V74.914H70.5793ZM71.5533 66.354C71.3385 66.354 70.9937 66.4084 70.7097 66.6924C70.4257 66.9764 70.3713 67.3212 70.3713 67.536H72.3713C72.3713 67.6295 72.3472 67.8833 72.1239 68.1066C71.9006 68.33 71.6468 68.354 71.5533 68.354V66.354ZM70.3713 67.536V75.362H72.3713V67.536H70.3713ZM70.3713 75.362C70.3713 75.5768 70.4257 75.9216 70.7097 76.2056C70.9937 76.4896 71.3385 76.544 71.5533 76.544V74.544C71.6468 74.544 71.9006 74.568 72.1239 74.7914C72.3473 75.0147 72.3713 75.2685 72.3713 75.362H70.3713ZM71.5533 76.544H75.4593V74.544H71.5533V76.544ZM75.4593 76.544C75.6741 76.544 76.0189 76.4896 76.3029 76.2056C76.5869 75.9216 76.6413 75.5768 76.6413 75.362H74.6413C74.6413 75.2685 74.6653 75.0147 74.8887 74.7914C75.112 74.568 75.3658 74.544 75.4593 74.544V76.544ZM76.6413 75.362V67.536H74.6413V75.362H76.6413ZM76.6413 67.536C76.6413 67.3212 76.5869 66.9764 76.3029 66.6924C76.0189 66.4084 75.6741 66.354 75.4593 66.354V68.354C75.3658 68.354 75.112 68.33 74.8887 68.1066C74.6653 67.8833 74.6413 67.6295 74.6413 67.536H76.6413ZM75.4593 66.354H71.5533V68.354H75.4593V66.354ZM79.7424 77H78.7424V78H79.7424V77ZM79.7424 65.898L79.7275 64.8981L78.7424 64.9129V65.898H79.7424ZM84.4184 65.828L84.4334 66.8279L84.4399 66.8278L84.4184 65.828ZM86.3784 66.416L85.695 67.146L85.703 67.1535L85.7112 67.1608L86.3784 66.416ZM85.5104 72.45L85.2151 71.4946L83.2635 72.0978L84.937 73.2692L85.5104 72.45ZM86.2104 73.556L85.265 73.882L85.2676 73.8894L86.2104 73.556ZM87.4284 77V78H88.8428L88.3712 76.6666L87.4284 77ZM85.6504 77L84.7034 77.321L84.9335 78H85.6504V77ZM84.2504 72.87L83.3017 73.1862L83.3034 73.191L84.2504 72.87ZM84.1524 72.702L83.3524 73.302L83.4381 73.4163L83.5524 73.502L84.1524 72.702ZM81.5064 72.646V71.646H80.5064V72.646H81.5064ZM81.5064 77V78H82.5064V77H81.5064ZM81.5064 67.368V66.368H80.5064V67.368H81.5064ZM81.5064 71.134H80.5064V72.134H81.5064V71.134ZM80.7424 77V65.898H78.7424V77H80.7424ZM79.7574 66.8979L84.4334 66.8279L84.4035 64.8281L79.7275 64.8981L79.7574 66.8979ZM84.4399 66.8278C85.1628 66.8122 85.5177 66.9801 85.695 67.146L87.0618 65.686C86.3618 65.0306 85.41 64.8064 84.3969 64.8282L84.4399 66.8278ZM85.7112 67.1608C85.8853 67.3168 86.0504 67.6032 86.0504 68.208H88.0504C88.0504 67.2261 87.7676 66.3178 87.0457 65.6712L85.7112 67.1608ZM86.0504 68.208V70.196H88.0504V68.208H86.0504ZM86.0504 70.196C86.0504 70.6477 85.953 70.9186 85.8397 71.0844C85.7327 71.2411 85.5532 71.3901 85.2151 71.4946L85.8057 73.4054C86.4943 73.1926 87.0848 72.8073 87.4911 72.2126C87.8912 71.6271 88.0504 70.9296 88.0504 70.196H86.0504ZM84.937 73.2692C84.962 73.2868 85.1051 73.4183 85.265 73.882L87.1558 73.23C86.9424 72.6111 86.6188 72.0052 86.0839 71.6308L84.937 73.2692ZM85.2676 73.8894L86.4856 77.3334L88.3712 76.6666L87.1532 73.2226L85.2676 73.8894ZM87.4284 76H85.6504V78H87.4284V76ZM86.5975 76.679L85.1975 72.549L83.3034 73.191L84.7034 77.321L86.5975 76.679ZM85.1991 72.5538C85.1559 72.4241 85.0435 72.1203 84.7524 71.902L83.5524 73.502C83.4313 73.4112 83.3677 73.3143 83.3411 73.2689C83.3128 73.2203 83.3022 73.1876 83.3017 73.1862L85.1991 72.5538ZM84.9524 72.102C84.7731 71.8629 84.5409 71.7537 84.38 71.7042C84.221 71.6553 84.0745 71.646 83.9704 71.646V73.646C83.9597 73.646 83.8902 73.646 83.7918 73.6158C83.6917 73.585 83.5037 73.5038 83.3524 73.302L84.9524 72.102ZM83.9704 71.646H81.5064V73.646H83.9704V71.646ZM80.5064 72.646V77H82.5064V72.646H80.5064ZM81.5064 76H79.7424V78H81.5064V76ZM85.0204 66.368H81.5064V68.368H85.0204V66.368ZM80.5064 67.368V71.134H82.5064V67.368H80.5064ZM81.5064 72.134H85.0204V70.134H81.5064V72.134ZM85.0204 72.134C85.2653 72.134 85.6284 72.0661 85.9166 71.7599C86.1941 71.4651 86.2444 71.1149 86.2444 70.896H84.2444C84.2444 70.8358 84.2574 70.6046 84.4602 70.3891C84.6737 70.1623 84.9249 70.134 85.0204 70.134V72.134ZM86.2444 70.896V67.592H84.2444V70.896H86.2444ZM86.2444 67.592C86.2444 67.3632 86.1865 67.0079 85.8955 66.7169C85.6045 66.4259 85.2492 66.368 85.0204 66.368V68.368C84.9409 68.368 84.6977 68.3475 84.4813 68.1311C84.265 67.9148 84.2444 67.6715 84.2444 67.592H86.2444ZM90.7704 77H89.7704V78H90.7704V77ZM90.7704 67.424H91.7704V66.424H90.7704V67.424ZM88.0684 67.424H87.0684V68.424H88.0684V67.424ZM88.0684 65.898V64.898H87.0684V65.898H88.0684ZM95.2224 65.898H96.2224V64.898H95.2224V65.898ZM95.2224 67.424V68.424H96.2224V67.424H95.2224ZM92.5344 67.424V66.424H91.5344V67.424H92.5344ZM92.5344 77V78H93.5344V77H92.5344ZM91.7704 77V67.424H89.7704V77H91.7704ZM90.7704 66.424H88.0684V68.424H90.7704V66.424ZM89.0684 67.424V65.898H87.0684V67.424H89.0684ZM88.0684 66.898H95.2224V64.898H88.0684V66.898ZM94.2224 65.898V67.424H96.2224V65.898H94.2224ZM95.2224 66.424H92.5344V68.424H95.2224V66.424ZM91.5344 67.424V77H93.5344V67.424H91.5344ZM92.5344 76H90.7704V78H92.5344V76ZM99.1058 77H98.1058V78H99.1058V77ZM99.1058 73.01H100.106V72.1754L99.2847 72.0261L99.1058 73.01ZM98.1958 72.534L97.4065 73.1479L97.4121 73.1552L97.4179 73.1623L98.1958 72.534ZM97.6078 71.4L96.6736 71.7566L96.6758 71.7624L97.6078 71.4ZM95.5078 65.898V64.898H94.0558L94.5736 66.2546L95.5078 65.898ZM97.3698 65.898L98.3048 65.5432L98.0599 64.898H97.3698V65.898ZM99.4418 71.358L100.398 71.0639L100.388 71.0332L100.377 71.0032L99.4418 71.358ZM100.632 71.358L99.6977 71.0011L99.6858 71.0322L99.6761 71.0639L100.632 71.358ZM102.718 65.898V64.898H102.029L101.784 65.5411L102.718 65.898ZM104.482 65.898L105.413 66.262L105.946 64.898H104.482V65.898ZM102.326 71.414L103.256 71.7812L103.257 71.778L102.326 71.414ZM101.934 72.282L101.055 71.8057L101.047 71.8201L101.039 71.8348L101.934 72.282ZM101.514 72.8L102.091 73.617L102.099 73.6107L101.514 72.8ZM100.856 73.024L100.724 72.0328L99.8558 72.1485V73.024H100.856ZM100.856 77V78H101.856V77H100.856ZM100.106 77V73.01H98.1058V77H100.106ZM99.2847 72.0261C99.0294 71.9797 98.9747 71.9068 98.9738 71.9057L97.4179 73.1623C97.809 73.6466 98.361 73.891 98.927 73.9939L99.2847 72.0261ZM98.9852 71.9201C98.8758 71.7794 98.7215 71.5046 98.5398 71.0376L96.6758 71.7624C96.8862 72.3034 97.1239 72.7846 97.4065 73.1479L98.9852 71.9201ZM98.5421 71.0434L96.4421 65.5414L94.5736 66.2546L96.6736 71.7566L98.5421 71.0434ZM95.5078 66.898H97.3698V64.898H95.5078V66.898ZM96.4349 66.2528L98.5069 71.7128L100.377 71.0032L98.3048 65.5432L96.4349 66.2528ZM98.4861 71.6521C98.5447 71.8426 98.6621 72.0811 98.8953 72.2706C99.1393 72.4689 99.4197 72.54 99.6658 72.54V70.54C99.8 70.54 99.9871 70.5808 100.156 70.7184C100.315 70.8472 100.376 70.9948 100.398 71.0639L98.4861 71.6521ZM99.6658 72.54H100.408V70.54H99.6658V72.54ZM100.408 72.54C100.654 72.54 100.934 72.4689 101.178 72.2706C101.412 72.0811 101.529 71.8426 101.588 71.6521L99.6761 71.0639C99.6973 70.9948 99.7587 70.8472 99.9173 70.7184C100.087 70.5808 100.274 70.54 100.408 70.54V72.54ZM101.566 71.7149L103.652 66.2549L101.784 65.5411L99.6977 71.0011L101.566 71.7149ZM102.718 66.898H104.482V64.898H102.718V66.898ZM103.55 65.534L101.394 71.05L103.257 71.778L105.413 66.262L103.55 65.534ZM101.396 71.0468C101.264 71.3805 101.15 71.6297 101.055 71.8057L102.813 72.7583C102.96 72.4863 103.108 72.1568 103.256 71.7812L101.396 71.0468ZM101.039 71.8348C100.985 71.9443 100.941 71.9802 100.928 71.9893L102.099 73.6107C102.423 73.3771 102.659 73.0677 102.828 72.7292L101.039 71.8348ZM100.937 71.983C100.949 71.9744 100.944 71.9811 100.908 71.9933C100.872 72.0057 100.813 72.0209 100.724 72.0328L100.988 74.0152C101.36 73.9656 101.754 73.8548 102.091 73.617L100.937 71.983ZM99.8558 73.024V77H101.856V73.024H99.8558ZM100.856 76H99.1058V78H100.856V76Z" fill="#034F7A" mask="url(#path-16-outside-1_35_11607)"/>
</svg>
